<svg width="98" height="96" viewBox="0 0 98 96" fill="none" xmlns="http://www.w3.org/2000/svg">
<path d="M16.9329 73.029C16.1099 73.0417 15.2926 72.8913 14.5286 72.5867C13.7646 72.2821 13.0691 71.8294 12.4827 71.2548C11.8962 70.6802 11.4305 69.9953 11.1126 69.24C10.7948 68.4846 10.6312 67.6739 10.6313 66.855C10.6314 66.0361 10.7952 65.2254 11.1132 64.4702C11.4313 63.7149 11.8971 63.0301 12.4837 62.4557C13.0703 61.8812 13.7659 61.4286 14.53 61.1242C15.2941 60.8198 16.1114 60.6697 16.9344 60.6825C18.5633 60.708 20.1168 61.3697 21.2596 62.5248C22.4024 63.6799 23.0428 65.2357 23.0426 66.8565C23.0424 68.4773 22.4016 70.033 21.2585 71.1878C20.1155 72.3426 18.5618 73.004 16.9329 73.029ZM4.43714 95.418V83.322C4.43714 78.96 8.03902 75.4155 12.4279 75.4155H20.9961C25.385 75.4155 29.305 78.96 29.305 83.322V95.418H4.43563H4.43714ZM81.2616 72.5055C82.9071 72.5039 84.4847 71.8527 85.6479 70.6948C86.8111 69.5369 87.465 67.9671 87.4658 66.33C87.484 65.508 87.337 64.6906 87.0334 63.9259C86.7298 63.1611 86.2757 62.4644 85.6978 61.8766C85.1199 61.2889 84.4297 60.8218 83.668 60.503C82.9062 60.1842 82.0881 60.0199 81.2616 60.0199C80.4352 60.0199 79.617 60.1842 78.8552 60.503C78.0934 60.8218 77.4034 61.2889 76.8254 61.8766C76.2475 62.4644 75.7934 63.1611 75.4898 63.9259C75.1862 64.6906 75.0392 65.508 75.0574 66.33C75.0578 67.9672 75.7115 69.5373 76.8749 70.6953C78.0382 71.8532 79.616 72.5043 81.2616 72.5055ZM93.7513 95.418V83.322C93.7513 78.96 90.1494 75.4155 85.7575 75.4155H77.1984C72.8019 75.4155 68.888 78.96 68.888 83.322V95.418H93.7513ZM49.0859 72.996C45.6182 72.996 42.8094 70.2225 42.8094 66.804C42.8094 63.3855 45.6182 60.6105 49.0859 60.6105C52.5506 60.6105 55.3594 63.384 55.3594 66.804C55.3594 70.224 52.5521 72.996 49.0859 72.996ZM33.9713 95.418L38.9105 82.0305C40.8886 75.192 46.6495 75.4035 46.6495 75.4035H51.539C51.539 75.4035 57.2968 75.1935 59.2779 82.0305L64.2171 95.418H33.9713ZM49.0859 52.794V38.1465L46.642 35.715V50.355H9.66883V3.78301H46.642V27.708L49.0859 30.138V1.34851H7.23391V52.7925L49.0859 52.794Z" fill="#28D2F8"/>
<path d="M27.7958 13.7925C28.6463 13.7563 29.4499 13.3947 30.0388 12.7832C30.6278 12.1716 30.9566 11.3574 30.9566 10.5105C30.9566 9.66355 30.6278 8.84934 30.0388 8.23781C29.4499 7.62627 28.6463 7.26467 27.7958 7.22849C26.9209 7.22849 26.0818 7.57427 25.4632 8.18976C24.8445 8.80526 24.497 9.64004 24.497 10.5105C24.497 11.3809 24.8445 12.2157 25.4632 12.8312C26.0818 13.4467 26.9209 13.7925 27.7958 13.7925ZM38.6889 27.432C38.6889 27.432 35.9826 18.2865 35.9781 18.279C34.9001 14.7195 31.8817 14.826 31.8817 14.826H23.716C23.716 14.826 20.6931 14.7195 19.6166 18.279L16.9103 27.432C16.8543 27.6094 16.8344 27.7961 16.8518 27.9813C16.8691 28.1664 16.9234 28.3463 17.0115 28.5103C17.0995 28.6744 17.2195 28.8193 17.3645 28.9367C17.5094 29.054 17.6764 29.1415 17.8558 29.1939C18.0351 29.2464 18.2231 29.2627 18.4089 29.242C18.5946 29.2213 18.7744 29.164 18.9376 29.0734C19.1008 28.9828 19.2443 28.8608 19.3596 28.7144C19.4748 28.5681 19.5597 28.4003 19.609 28.221L22.1932 19.4685L22.1993 19.4715L23.3511 19.4685V29.4285L18.8024 44.9595C18.7181 45.2457 18.702 45.5475 18.7553 45.841C18.8086 46.1345 18.9299 46.4116 19.1096 46.6503C19.2893 46.889 19.5224 47.0828 19.7904 47.2163C20.0585 47.3499 20.3541 47.4194 20.6539 47.4195C21.4906 47.4195 22.2626 46.875 22.5098 46.038L27.0028 30.702H28.5934L33.0863 46.038C33.1571 46.2802 33.2753 46.5061 33.4341 46.7028C33.5928 46.8995 33.789 47.0631 34.0115 47.1842C34.2339 47.3053 34.4781 47.3815 34.7302 47.4085C34.9823 47.4355 35.2373 47.4127 35.4805 47.3415C35.7239 47.2708 35.9509 47.1532 36.1485 46.9952C36.3462 46.8372 36.5106 46.6421 36.6324 46.4209C36.7542 46.1997 36.831 45.9567 36.8585 45.706C36.8859 45.4552 36.8634 45.2016 36.7922 44.9595L32.2435 29.436V19.47L33.3954 19.473L33.4014 19.47L35.9886 28.2225C36.0938 28.5785 36.3368 28.8784 36.6642 29.0562C36.8263 29.1443 37.0043 29.1997 37.188 29.2193C37.3716 29.2389 37.5573 29.2223 37.7345 29.1705C37.9117 29.1187 38.0769 29.0327 38.2207 28.9173C38.3645 28.802 38.4841 28.6596 38.5725 28.4983C38.661 28.337 38.7167 28.16 38.7364 27.9773C38.7561 27.7946 38.7395 27.6098 38.6874 27.4335L38.6889 27.432ZM81.233 26.0535C79.6136 26.0179 78.0726 25.353 76.9399 24.201C75.8073 23.0489 75.173 21.5015 75.173 19.89C75.173 18.2785 75.8073 16.731 76.9399 15.579C78.0726 14.427 79.6136 13.762 81.233 13.7265C82.0467 13.7259 82.8526 13.885 83.6044 14.1948C84.3563 14.5046 85.0393 14.9589 85.6144 15.5317C86.1894 16.1046 86.6452 16.7847 86.9557 17.533C87.2661 18.2814 87.4251 19.0834 87.4235 19.893C87.4247 20.7022 87.2654 21.5037 86.9548 22.2516C86.6441 22.9994 86.1882 23.679 85.6131 24.2512C85.038 24.8235 84.3551 25.2773 83.6035 25.5865C82.8519 25.8958 82.0463 26.0545 81.233 26.0535ZM81.233 35.22C81.233 35.22 82.7361 35.4135 83.6558 34.146C84.4881 32.988 84.5499 29.151 84.5559 28.4565H77.904C77.8814 31.218 78.204 33.231 78.8674 34.245C79.5368 35.28 81.233 35.2215 81.233 35.2215V35.22Z" fill="#28D2F8"/>
<path d="M54.2392 40.6545C54.0116 41.0265 53.6573 41.7825 53.6573 42.2595C53.6573 43.6995 54.8257 44.856 56.2686 44.856H64.8579C65.8334 44.856 67.1149 44.4645 67.6622 43.6485C69.5091 40.92 71.4616 38.0445 72.0375 37.185V53.343H93.6699V36.7725C93.6699 32.439 90.267 28.5375 86.2415 28.5375C86.2521 30.5715 85.9777 33.9495 84.7806 35.4285C83.5307 36.939 82.0592 36.807 82.0592 36.807V43.1115C82.5228 43.2997 82.9062 43.6427 83.1434 44.0814C83.3806 44.5202 83.4569 45.0275 83.3592 45.5161C83.2615 46.0048 82.9958 46.4443 82.6078 46.7594C82.2198 47.0744 81.7337 47.2452 81.233 47.2425C80.9493 47.2427 80.6684 47.1872 80.4064 47.0792C80.1443 46.9712 79.9063 46.8128 79.7059 46.6132C79.5054 46.4135 79.3466 46.1764 79.2384 45.9156C79.1302 45.6547 79.0749 45.3752 79.0754 45.093C79.0754 44.2005 79.6212 43.4355 80.4022 43.1115V36.7785C80.4022 36.7785 79.1177 36.8835 77.904 35.673C76.2832 33.993 76.2229 29.232 76.2259 28.4535H75.8324C74.5243 28.4525 73.2362 28.7733 72.0828 29.3873C70.9293 30.0012 69.9463 30.8893 69.2212 31.9725L64.0784 39.693L56.2761 39.69L45.2579 28.7265C45.1597 28.628 45.0428 28.5499 44.9141 28.4966C44.7853 28.4432 44.6473 28.4158 44.5078 28.4158C44.3684 28.4158 44.2303 28.4432 44.1016 28.4966C43.9728 28.5499 43.856 28.628 43.7578 28.7265C43.6587 28.8244 43.58 28.9408 43.5262 29.069C43.4724 29.1972 43.4446 29.3347 43.4443 29.4736C43.444 29.6125 43.4713 29.7502 43.5246 29.8786C43.5778 30.007 43.6561 30.1237 43.7547 30.222L54.2407 40.656L54.2392 40.6545Z" fill="#28D2F8"/>
</svg>
