<svg width="107" height="107" viewBox="0 0 107 107" fill="none" xmlns="http://www.w3.org/2000/svg">
<path d="M70.2188 48.4844H90.2812C92.4949 48.4734 94.6148 47.5891 96.1801 46.0238C97.7454 44.4585 98.6296 42.3387 98.6406 40.125V20.0625C98.6296 17.8488 97.7454 15.729 96.1801 14.1637C94.6148 12.5984 92.4949 11.7141 90.2812 11.7031H70.2188C68.0051 11.7141 65.8852 12.5984 64.3199 14.1637C62.7546 15.729 61.8704 17.8488 61.8594 20.0625V25.0781H60.1875C56.1968 25.0781 52.3696 26.6634 49.5478 29.4853C46.7259 32.3071 45.1406 36.1343 45.1406 40.125V48.4844H38.4531V45.1406C38.4421 42.927 37.5579 40.8071 35.9926 39.2418C34.4273 37.6765 32.3074 36.7922 30.0938 36.7812H13.375C11.1613 36.7922 9.04148 37.6765 7.47617 39.2418C5.91086 40.8071 5.02661 42.927 5.01562 45.1406V61.8594C5.02661 64.073 5.91086 66.1929 7.47617 67.7582C9.04148 69.3235 11.1613 70.2078 13.375 70.2188H30.0938C32.3074 70.2078 34.4273 69.3235 35.9926 67.7582C37.5579 66.1929 38.4421 64.073 38.4531 61.8594V58.5156H45.1406V66.875C45.1406 70.8657 46.7259 74.6929 49.5478 77.5147C52.3696 80.3366 56.1968 81.9219 60.1875 81.9219H61.8594V86.9375C61.8704 89.1512 62.7546 91.271 64.3199 92.8363C65.8852 94.4016 68.0051 95.2859 70.2188 95.2969H90.2812C92.4949 95.2859 94.6148 94.4016 96.1801 92.8363C97.7454 91.271 98.6296 89.1512 98.6406 86.9375V66.875C98.6296 64.6613 97.7454 62.5415 96.1801 60.9762C94.6148 59.4109 92.4949 58.5266 90.2812 58.5156H70.2188C68.0051 58.5266 65.8852 59.4109 64.3199 60.9762C62.7546 62.5415 61.8704 64.6613 61.8594 66.875V71.8906H60.1875C58.8573 71.8906 57.5815 71.3622 56.6409 70.4216C55.7003 69.481 55.1719 68.2052 55.1719 66.875V40.125C55.1719 38.7948 55.7003 37.519 56.6409 36.5784C57.5815 35.6378 58.8573 35.1094 60.1875 35.1094H61.8594V40.125C61.8704 42.3387 62.7546 44.4585 64.3199 46.0238C65.8852 47.5891 68.0051 48.4734 70.2188 48.4844ZM28.4219 60.1875H15.0469V46.8125H28.4219V60.1875ZM71.8906 68.5469H88.6094V85.2656H71.8906V68.5469ZM71.8906 21.7344H88.6094V38.4531H71.8906V21.7344Z" fill="#28D2F8"/>
</svg>
