<svg width="107" height="107" viewBox="0 0 107 107" fill="none" xmlns="http://www.w3.org/2000/svg">
<path d="M98.0833 49.0417C98.0958 45.8993 97.2777 42.8093 95.7119 40.0848C94.1461 37.3603 91.8881 35.0979 89.1667 33.5267C89.2338 32.7554 89.2338 31.9797 89.1667 31.2083C89.1667 27.6611 87.7575 24.2591 85.2492 21.7508C82.7409 19.2425 79.3389 17.8333 75.7917 17.8333H74.9892C74.2467 15.775 73.0106 13.9302 71.3892 12.4608C69.7679 10.9914 67.8107 9.94224 65.6895 9.40532C63.5682 8.86841 61.3476 8.86013 59.2224 9.38123C57.0972 9.90233 55.1323 10.9369 53.5 12.3942C51.8677 10.9369 49.9028 9.90233 47.7776 9.38123C45.6524 8.86013 43.4318 8.86841 41.3105 9.40532C39.1893 9.94224 37.2321 10.9914 35.6108 12.4608C33.9894 13.9302 32.7533 15.775 32.0108 17.8333H31.2083C27.6611 17.8333 24.2591 19.2425 21.7508 21.7508C19.2425 24.2591 17.8333 27.6611 17.8333 31.2083C17.7662 31.9797 17.7662 32.7554 17.8333 33.5267C15.3031 34.9569 13.1607 36.9839 11.5927 39.4312C10.0248 41.8785 9.07877 44.6719 8.83703 47.5684C8.59529 50.4648 9.06517 53.3764 10.2058 56.0498C11.3463 58.7232 13.1231 61.0772 15.3813 62.9071C13.9201 65.6323 13.1927 68.6906 13.2704 71.7819C13.3481 74.8731 14.2283 77.891 15.8245 80.5393C17.4207 83.1877 19.6781 85.3755 22.3752 86.888C25.0722 88.4006 28.1162 89.1858 31.2083 89.1667H32.0108C32.7533 91.225 33.9894 93.0698 35.6108 94.5392C37.2321 96.0086 39.1893 97.0578 41.3105 97.5947C43.4318 98.1316 45.6524 98.1399 47.7776 97.6188C49.9028 97.0977 51.8677 96.0631 53.5 94.6058C55.1323 96.0631 57.0972 97.0977 59.2224 97.6188C61.3476 98.1399 63.5682 98.1316 65.6895 97.5947C67.8107 97.0578 69.7679 96.0086 71.3892 94.5392C73.0106 93.0698 74.2467 91.225 74.9892 89.1667H75.7917C78.8649 89.1473 81.881 88.3339 84.5474 86.8056C87.2137 85.2772 89.4398 83.0858 91.0098 80.4437C92.5798 77.8017 93.4403 74.7987 93.508 71.7261C93.5756 68.6536 92.848 65.6157 91.3958 62.9071C93.4754 61.2422 95.1555 59.1325 96.3127 56.7331C97.47 54.3337 98.075 51.7056 98.0833 49.0417ZM49.0417 38.1188C48.0706 37.5634 47.0569 37.0863 46.01 36.6921C44.8867 36.3137 43.6591 36.3971 42.5972 36.9238C41.5354 37.4506 40.7263 38.3775 40.3479 39.5008C39.9695 40.6241 40.0529 41.8517 40.5796 42.9136C41.1064 43.9754 42.0334 44.7845 43.1567 45.1629C44.8729 45.7834 46.3574 46.9154 47.4098 48.4063C48.4622 49.8972 49.0318 51.6751 49.0417 53.5V60.4104C48.0706 59.855 47.0569 59.378 46.01 58.9838C44.8867 58.6054 43.6591 58.6887 42.5972 59.2155C41.5354 59.7422 40.7263 60.6692 40.3479 61.7925C39.9695 62.9158 40.0529 64.1434 40.5796 65.2053C41.1064 66.2671 42.0334 67.0762 43.1567 67.4546C44.8729 68.075 46.3574 69.2071 47.4098 70.698C48.4622 72.1889 49.0318 73.9668 49.0417 75.7917V84.7083C49.0417 85.8908 48.572 87.0248 47.7359 87.8609C46.8998 88.697 45.7658 89.1667 44.5833 89.1667C43.7208 89.161 42.8784 88.9053 42.1583 88.4305C41.4382 87.9557 40.8713 87.2822 40.5263 86.4917C41.2738 86.053 41.989 85.5613 42.6663 85.0204C43.1171 84.6457 43.4897 84.1859 43.7628 83.6672C44.0359 83.1485 44.2042 82.5811 44.258 81.9973C44.3118 81.4136 44.2501 80.825 44.0764 80.2651C43.9028 79.7052 43.6205 79.185 43.2458 78.7342C42.8711 78.2834 42.4113 77.9108 41.8926 77.6376C41.3739 77.3645 40.8065 77.1963 40.2227 77.1424C39.639 77.0886 39.0504 77.1503 38.4905 77.324C37.9306 77.4976 37.4104 77.7799 36.9596 78.1546C35.3498 79.5098 33.3126 80.252 31.2083 80.25C28.8435 80.25 26.5755 79.3106 24.9033 77.6384C23.2311 75.9662 22.2917 73.6982 22.2917 71.3333C22.313 69.6552 22.8075 68.0171 23.7183 66.6075C24.7189 66.787 25.7335 66.8765 26.75 66.875C27.9324 66.875 29.0664 66.4053 29.9025 65.5692C30.7386 64.7331 31.2083 63.5991 31.2083 62.4167C31.2083 61.2342 30.7386 60.1003 29.9025 59.2642C29.0664 58.4281 27.9324 57.9583 26.75 57.9583C25.6969 57.9644 24.6525 57.7676 23.6738 57.3788C22.0703 56.8005 20.6662 55.7747 19.6278 54.4229C18.5894 53.0712 17.9602 51.4501 17.8147 49.7517C17.6693 48.0534 18.0137 46.3489 18.8072 44.8403C19.6006 43.3317 20.8099 42.0821 22.2917 41.2396C22.9252 41.8225 23.6118 42.3449 24.3425 42.8C25.3712 43.3912 26.5926 43.5496 27.7381 43.2402C28.8836 42.9308 29.8592 42.1791 30.4504 41.1504C31.0416 40.1217 31.2 38.9003 30.8906 37.7548C30.5813 36.6094 29.8295 35.6337 28.8008 35.0425C28.1732 34.6963 27.6498 34.1883 27.285 33.5713C26.8728 32.8555 26.6863 32.0319 26.75 31.2083C26.75 30.0259 27.2197 28.8919 28.0558 28.0558C28.8919 27.2197 30.0259 26.75 31.2083 26.75C31.5189 26.7067 31.834 26.7067 32.1446 26.75C32.3806 27.4663 32.6636 28.1663 32.9917 28.8454C33.2829 29.3563 33.6724 29.8045 34.1376 30.1642C34.6028 30.5239 35.1346 30.7881 35.7023 30.9414C36.27 31.0947 36.8625 31.1342 37.4455 31.0576C38.0286 30.981 38.5907 30.7898 39.0996 30.495C40.088 29.9003 40.8075 28.9456 41.1068 27.8316C41.4061 26.7175 41.2619 25.5308 40.7046 24.5208C40.3305 23.837 40.1314 23.0712 40.125 22.2917C40.125 21.1092 40.5947 19.9753 41.4308 19.1392C42.2669 18.3031 43.4009 17.8333 44.5833 17.8333C45.7658 17.8333 46.8998 18.3031 47.7359 19.1392C48.572 19.9753 49.0417 21.1092 49.0417 22.2917V38.1188ZM83.3263 57.3788C82.3475 57.7676 81.3031 57.9644 80.25 57.9583C79.0676 57.9583 77.9336 58.4281 77.0975 59.2642C76.2614 60.1003 75.7917 61.2342 75.7917 62.4167C75.7917 63.5991 76.2614 64.7331 77.0975 65.5692C77.9336 66.4053 79.0676 66.875 80.25 66.875C81.2665 66.8765 82.2811 66.787 83.2817 66.6075C84.1925 68.0171 84.687 69.6552 84.7083 71.3333C84.7083 73.6982 83.7689 75.9662 82.0967 77.6384C80.4245 79.3106 78.1565 80.25 75.7917 80.25C73.6874 80.252 71.6502 79.5098 70.0404 78.1546C69.13 77.3978 67.9562 77.0338 66.7773 77.1424C65.5984 77.2511 64.5109 77.8237 63.7542 78.7342C62.9974 79.6446 62.6333 80.8184 62.742 81.9973C62.8507 83.1762 63.4233 84.2637 64.3338 85.0204C65.011 85.5613 65.7262 86.053 66.4738 86.4917C66.1287 87.2822 65.5618 87.9557 64.8417 88.4305C64.1216 88.9053 63.2792 89.161 62.4167 89.1667C61.2342 89.1667 60.1003 88.697 59.2642 87.8609C58.4281 87.0248 57.9583 85.8908 57.9583 84.7083V75.7917C57.9683 73.9668 58.5378 72.1889 59.5902 70.698C60.6426 69.2071 62.1271 68.075 63.8433 67.4546C64.9666 67.0762 65.8936 66.2671 66.4204 65.2053C66.9471 64.1434 67.0305 62.9158 66.6521 61.7925C66.2737 60.6692 65.4646 59.7422 64.4028 59.2155C63.3409 58.6887 62.1133 58.6054 60.99 58.9838C59.9431 59.378 58.9294 59.855 57.9583 60.4104V53.5C57.9683 51.6751 58.5378 49.8972 59.5902 48.4063C60.6426 46.9154 62.1271 45.7834 63.8433 45.1629C64.3995 44.9756 64.9134 44.6805 65.3556 44.2946C65.7977 43.9086 66.1596 43.4394 66.4204 42.9136C66.6812 42.3878 66.8359 41.8158 66.8756 41.2303C66.9154 40.6447 66.8394 40.057 66.6521 39.5008C66.4647 38.9446 66.1697 38.4308 65.7837 37.9886C65.3978 37.5464 64.9285 37.1846 64.4028 36.9238C63.877 36.663 63.305 36.5083 62.7194 36.4685C62.1339 36.4288 61.5462 36.5047 60.99 36.6921C59.9431 37.0863 58.9294 37.5634 57.9583 38.1188V22.2917C57.9583 21.1092 58.4281 19.9753 59.2642 19.1392C60.1003 18.3031 61.2342 17.8333 62.4167 17.8333C63.5991 17.8333 64.7331 18.3031 65.5692 19.1392C66.4053 19.9753 66.875 21.1092 66.875 22.2917C66.8686 23.0712 66.6695 23.837 66.2954 24.5208C65.9988 25.027 65.805 25.5868 65.7251 26.168C65.6453 26.7493 65.6809 27.3405 65.83 27.908C65.9791 28.4754 66.2388 29.0078 66.5941 29.4747C66.9493 29.9416 67.3933 30.3338 67.9004 30.6288C68.4093 30.9235 68.9714 31.1147 69.5545 31.1913C70.1375 31.268 70.73 31.2285 71.2977 31.0751C71.8654 30.9218 72.3972 30.6577 72.8624 30.298C73.3276 29.9382 73.7171 29.49 74.0083 28.9792C74.342 28.2567 74.6251 27.5118 74.8554 26.75C75.166 26.7067 75.4811 26.7067 75.7917 26.75C76.9741 26.75 78.1081 27.2197 78.9442 28.0558C79.7803 28.8919 80.25 30.0259 80.25 31.2083C80.2432 32.0823 79.9796 32.935 79.4921 33.6604C79.1275 34.239 78.621 34.7147 78.0208 35.0425C76.9921 35.6337 76.2404 36.6094 75.9311 37.7548C75.6217 38.9003 75.78 40.1217 76.3713 41.1504C76.9625 42.1791 77.9381 42.9308 79.0836 43.2402C80.229 43.5496 81.4505 43.3912 82.4792 42.8C83.2796 42.3671 84.0276 41.8435 84.7083 41.2396C86.1952 42.0672 87.4142 43.303 88.2213 44.8011C89.0285 46.2991 89.3902 47.9969 89.2636 49.6938C89.137 51.3908 88.5275 53.0161 87.5071 54.3778C86.4866 55.7396 85.0978 56.7809 83.5046 57.3788H83.3263Z" fill="#28D2F8"/>
</svg>
